# xmcd
# Track frame offsets:
# 150
# 15535
# 47305
# 77397
# 95580
# 123412
# 151375
# 172770
# 202230
# 230063
# 255633
#
# Disc length: 3547 seconds
# Revision: 0
# Processed by: cddbd v1.5.2PL0 Copyright (c) Steve Scherf et al.
# Submitted via: VisiTrax 2.11.3.279 - For more info visit www.synapsa.com
#
DISCID=800dd90b
DTITLE=Suger Blue - Harp Zilja
DYEAR=2006
DGENRE=Blues
TTITLE0=Rice Miller - Pontiac blues
TTITLE1=Dixon - Backdoor man
TTITLE2=Whiting-Makino - In your eyes
TTITLE3=Cotton - One more mile
TTITLE4=J. A. Lane - That´s all right
TTITLE5=Jagger- Richards - Miss You
TTITLE6=Whiting - Cold blooded man
TTITLE7=Dixon - Little Red Rooster
TTITLE8=Whiting-Makino - Lip serice and lies
TTITLE9=Whiting - Gucci gucci man
TTITLE10=Rice Miller - Another man done gone
EXTD=
EXTT0=
EXTT1=
EXTT2=
EXTT3=
EXTT4=
EXTT5=
EXTT6=
EXTT7=
EXTT8=
EXTT9=
EXTT10=
PLAYORDER=
